Coordinates
version=1
nRows=43
nColumns=12
inDegrees=yes

Units are S.I. units (second, meters, Newtons, ...)
Angles are in degrees

endheader
time	SC_y	SC_z	SC_x	AC_y	AC_z	AC_x	GH_y	GH_z	GH_yy	EL_x	PS_y
       0.0              -44.19           34.8          4.603           33.3        -0.4257         -2.416         -120.8          38.39         -69.11          121.1          54.25
   0.02136              -44.19           34.8          4.607           33.3        -0.4261         -2.414         -120.8          38.39         -69.11          121.1          54.25
   0.04272              -44.18           34.8           4.61          33.31        -0.4265         -2.411         -120.8          38.38         -69.11          121.1          54.26
   0.06408              -44.18           34.8          4.614          33.31        -0.4269         -2.408         -120.7          38.38         -69.11          121.1          54.26
   0.08543              -44.18           34.8          4.619          33.32        -0.4274         -2.404         -120.7          38.38         -69.11          121.1          54.26
    0.1068              -44.18           34.8          4.623          33.32        -0.4279         -2.401         -120.7          38.38         -69.11          121.1          54.26
    0.1282              -44.18           34.8          4.628          33.32        -0.4284         -2.397         -120.7          38.37         -69.11          121.1          54.26
    0.1495              -44.17           34.8          4.633          33.33         -0.429         -2.393         -120.6          38.37          -69.1          121.1          54.27
    0.1709              -44.17           34.8          4.639          33.33        -0.4296         -2.389         -120.6          38.37          -69.1          121.1          54.27
    0.1922              -44.17           34.8          4.645          33.34        -0.4303         -2.384         -120.6          38.36          -69.1          121.1          54.27
    0.2136              -44.17           34.8          4.651          33.35         -0.431         -2.379         -120.6          38.36          -69.1          121.1          54.27
    0.2349              -44.16           34.8          4.658          33.35        -0.4318         -2.374         -120.5          38.35          -69.1          121.1          54.28
    0.2563              -44.16          34.81          4.665          33.36        -0.4326         -2.368         -120.5          38.35         -69.09          121.1          54.28
    0.2777              -44.16          34.81          4.673          33.37        -0.4335         -2.362         -120.5          38.34         -69.09          121.1          54.28
     0.299              -44.15          34.81          4.682          33.38        -0.4344         -2.355         -120.4          38.34         -69.09          121.1          54.29
    0.3204              -44.15          34.81          4.691          33.38        -0.4355         -2.348         -120.4          38.33         -69.09          121.0          54.29
    0.3417              -44.14          34.81          4.702          33.39        -0.4366          -2.34         -120.3          38.33         -69.08          121.0          54.29
    0.3631              -44.14          34.81          4.713           33.4        -0.4378         -2.331         -120.3          38.32         -69.08          121.0           54.3
    0.3845              -44.13          34.81          4.725          33.42        -0.4392         -2.322         -120.2          38.31         -69.08          121.0           54.3
    0.4058              -44.13          34.81          4.738          33.43        -0.4407         -2.311         -120.2           38.3         -69.07          121.0          54.31
    0.4272              -44.12          34.82          4.753          33.44        -0.4423           -2.3         -120.1          38.29         -69.07          121.0          54.31
    0.4485              -44.11          34.82          4.769          33.46        -0.4441         -2.287         -120.0          38.28         -69.06          121.0          54.32
    0.4699              -44.11          34.82          4.787          33.47         -0.446         -2.274         -120.0          38.27         -69.06          121.0          54.33
    0.4913               -44.1          34.82          4.807          33.49        -0.4482         -2.258         -119.9          38.26         -69.05          121.0          54.34
    0.5126              -44.09          34.82          4.828          33.51        -0.4506         -2.241         -119.8          38.24         -69.04          121.0          54.35
     0.534              -44.08          34.83          4.853          33.53        -0.4533         -2.222         -119.7          38.23         -69.04          121.0          54.36
    0.5553              -44.07          34.83           4.88          33.56        -0.4564         -2.201         -119.6          38.21         -69.03          120.9          54.37
    0.5767              -44.05          34.83          4.911          33.59        -0.4598         -2.177         -119.4          38.19         -69.02          120.9          54.38
     0.598              -44.04          34.84          4.946          33.62        -0.4636          -2.15         -119.3          38.17         -69.01          120.9          54.39
    0.6194              -44.02          34.84          4.985          33.66         -0.468         -2.119         -119.1          38.14          -69.0          120.9          54.41
    0.6408               -44.0          34.85           5.03           33.7         -0.473         -2.084         -118.9          38.12         -68.98          120.9          54.43
    0.6621              -43.98          34.85          5.082          33.75        -0.4787         -2.044         -118.7          38.08         -68.97          120.8          54.45
    0.6835              -43.95          34.86          5.142           33.8        -0.4853         -1.998         -118.4          38.05         -68.95          120.8          54.47
    0.7048              -43.92          34.87          5.211          33.87         -0.493         -1.944         -118.1           38.0         -68.93          120.8           54.5
    0.7262              -43.88          34.88          5.293          33.94         -0.502         -1.881         -117.7          37.95          -68.9          120.7          54.54
    0.7476              -43.84          34.89          5.388          34.03        -0.5126         -1.807         -117.3          37.89         -68.87          120.7          54.58
    0.7689              -43.79           34.9          5.502          34.14        -0.5252         -1.718         -116.8          37.82         -68.84          120.6          54.62
    0.7903              -43.73          34.92          5.638          34.26        -0.5403         -1.612         -116.2          37.73          -68.8          120.5          54.68
    0.8116              -43.66          34.94          5.803          34.42        -0.5585         -1.484         -115.5          37.62         -68.75          120.5          54.75
     0.833              -43.57          34.96          6.005          34.61        -0.5808         -1.328         -114.6           37.5         -68.69          120.4          54.83
    0.8543              -43.46          34.99          6.254          34.84        -0.6084         -1.135         -113.5          37.34         -68.61          120.2          54.93
    0.8757              -43.32          35.02          6.564          35.13        -0.6427        -0.8937         -112.1          37.14         -68.52          120.1          55.06
    0.8971              -43.15          35.07          6.955          35.49         -0.686        -0.5903         -110.4          36.89          -68.4          119.9          55.22
